<svg width="37" height="37" viewBox="0 0 37 37" fill="none" xmlns="http://www.w3.org/2000/svg">
<path d="M18.5 36L22.3889 32.1111M27.25 32.1111C28.5392 32.1111 29.7757 31.599 30.6873 30.6873C31.599 29.7757 32.1111 28.5392 32.1111 27.25C32.1111 25.9608 31.599 24.7243 30.6873 23.8127C29.7757 22.901 28.5392 22.3889 27.25 22.3889C25.9608 22.3889 24.7243 22.901 23.8127 23.8127C22.901 24.7243 22.3889 25.9608 22.3889 27.25C22.3889 28.5392 22.901 29.7757 23.8127 30.6873C24.7243 31.599 25.9608 32.1111 27.25 32.1111V32.1111ZM14.6111 4.88889L18.5 1L14.6111 4.88889ZM9.75 14.6111C11.0392 14.6111 12.2757 14.099 13.1873 13.1873C14.099 12.2757 14.6111 11.0392 14.6111 9.75C14.6111 8.46075 14.099 7.22431 13.1873 6.31268C12.2757 5.40104 11.0392 4.88889 9.75 4.88889C8.46075 4.88889 7.22431 5.40104 6.31268 6.31268C5.40104 7.22431 4.88889 8.46075 4.88889 9.75C4.88889 11.0392 5.40104 12.2757 6.31268 13.1873C7.22431 14.099 8.46075 14.6111 9.75 14.6111V14.6111ZM10.7222 26.2778L26.2778 10.7222L10.7222 26.2778ZM5.86111 36C7.15036 36 8.3868 35.4878 9.29844 34.5762C10.2101 33.6646 10.7222 32.4281 10.7222 31.1389C10.7222 29.8496 10.2101 28.6132 9.29844 27.7016C8.3868 26.7899 7.15036 26.2778 5.86111 26.2778C4.57186 26.2778 3.33542 26.7899 2.42379 27.7016C1.51215 28.6132 1 29.8496 1 31.1389C1 32.4281 1.51215 33.6646 2.42379 34.5762C3.33542 35.4878 4.57186 36 5.86111 36V36ZM31.1389 10.7222C32.4281 10.7222 33.6646 10.2101 34.5762 9.29844C35.4878 8.3868 36 7.15036 36 5.86111C36 4.57186 35.4878 3.33542 34.5762 2.42379C33.6646 1.51215 32.4281 1 31.1389 1C29.8496 1 28.6132 1.51215 27.7016 2.42379C26.7899 3.33542 26.2778 4.57186 26.2778 5.86111C26.2778 7.15036 26.7899 8.3868 27.7016 9.29844C28.6132 10.2101 29.8496 10.7222 31.1389 10.7222Z" stroke="white" stroke-width="2" stroke-linecap="round" stroke-linejoin="round"/>
</svg>
